Patient4_TMGait_0pt7_01_left_35_EMG.mot
version=1
nRows=40
nColumns=33
inDegrees=no
endheader
time	1LAddLong	2LGlutMax	3LGlutMed	4LIliopsoas	5LSemiMemb	6LBicFemLong	7LRecFem	8LVastMed	9LVastLat	10LGasMed	11LTibAnt	12lTibPost	13LPeroneusLong	14LSol	15LExtDigLong	16LFlexDigLong	17RAddLong	18RGlutMax	19RGlutMed	20RIliopsoas	21RSemiMemb	22RBicFemLong	23RRecFem	24RVastMed	25RVastLat	26RGasMed	27RTibAnt	28RTibPost	29RPeroneusLong	30RSol	31RExtDigLong	32RFlexDigLong
41.623	0.022888	0.38116	-0.054169	0.000305	0.06134	-0.075226	-0.11704	0.010071	0.095673	-0.037537	0.008392	-0.003052	0.029602	0.040894	0.007935	-0.004272	0.031586	-0.24124	1.5781	0.18906	0.016937	-0.081787	-0.13916	-0.20981	-0.79071	-0.012817	0.1416	0.004578	-0.23056	0.36331	-0.001068	-0.016327
41.624	0.018463	0.33234	-0.11047	0.017395	0.05249	-0.031586	-0.10361	0.010681	0.086975	-0.051727	0.026703	-0.002899	0.030975	-0.001373	-0.002289	0.010834	0.02655	-0.25787	1.19	0.087433	0.043488	-0.087891	-0.1178	-0.21484	-0.2092	-0.002441	-0.40543	-0.008087	-0.024872	0.11917	-0.005341	-0.009003
41.625	0.021057	0.31052	-0.11765	0.009308	0.013733	-0.028381	-0.14236	0.009155	0.095673	-0.046234	0.015259	-0.004425	0.031433	-0.006866	0.005493	0.009003	0.013733	-0.28534	0.44556	0.029144	0.006256	-0.03952	-0.16495	-0.097504	0.03006	-0.000763	0.075073	-0.00885	0.059357	-0.31158	-0.005493	-0.013275
41.626	0.013275	0.28442	-0.12695	0.010071	-0.003204	-0.012512	-0.1294	0.014801	0.095673	-0.04837	0.020599	-0.003052	0.03952	-0.011292	0.004883	0.005493	0.012054	-0.31479	0.44373	0.002441	-0.071411	0.025482	-0.028076	-0.050354	0.029907	-0.001831	0.53192	-0.005188	0.1471	-0.42877	-0.004578	-0.02121
41.627	0.005341	0.30945	-0.097961	0.005646	0.012665	-0.07782	-0.13092	0.008392	0.11368	-0.048676	0.006714	-0.003662	0.043335	-0.067291	0.007324	0.011444	0.023346	-0.31479	0.43991	0.009918	-0.034027	-0.001068	0.072784	0.09079	0.042572	-0.014191	0.93414	-0.007477	0.043945	-0.30014	-0.002747	-0.02182
41.628	0.006561	0.26093	-0.091248	0.009003	0.026855	-0.01236	-0.14572	0.009613	0.11017	-0.041351	0.014343	-0.005798	0.043945	-0.06012	0.00412	0.004578	0.0383	-0.20538	0.5513	-0.053711	0.064087	-0.071564	0.13138	0.12619	-0.021057	-0.019836	-0.12299	-0.011292	0.028381	-0.098877	-0.004425	-0.015717
41.629	0.005951	0.27283	-0.1358	0.006714	0.016022	0.018768	-0.16144	-0.015106	0.10895	-0.040283	0.010071	-0.009308	0.037384	-0.052795	0.011749	0.011749	0.007477	-0.12314	0.62576	-0.12085	0.039673	-0.04303	-0.036469	0.097504	-0.12817	-0.024261	-0.99533	-0.014038	0.041199	0.050659	-0.004578	-0.02243
41.63	0.003357	0.22751	-0.15656	-0.008545	-0.002594	0.018616	-0.13977	-0.00412	0.10757	-0.022583	0.006256	-0.033417	0.052338	-0.11383	0.014801	0.01236	0.013733	-0.092316	0.23071	-0.10346	-0.088348	-0.017242	-0.10803	0.02243	-0.11154	-0.017395	-0.5455	-0.007629	0.003967	-0.001068	-0.004272	-0.015564
41.631	0.003357	0.19562	-0.18158	0.010529	0.003204	0.005646	-0.15732	0.009918	0.10407	-0.00824	0.010986	-0.008545	0.041504	-0.25024	0.002594	0.02243	-0.004883	-0.039825	0.17716	-0.10895	-0.032501	0.005493	-0.09491	0.063324	-0.13886	-0.023956	0.009613	-0.017395	-0.11887	-0.32455	-0.008392	-0.019684
41.632	0.013885	0.17395	-0.2214	0.010681	0.006256	0.015564	-0.16342	0.011749	0.1152	-0.00351	0.015869	-0.005646	0.048065	-0.27466	-0.018005	0.020447	-0.009155	0.007172	0.46463	-0.10284	0.037231	0.013733	-0.34149	-0.019989	-0.12558	-0.037537	-0.10071	-0.008698	-0.1004	-0.28625	-0.003052	-0.02182
41.633	0.015106	0.18616	-0.33539	0.011749	0.00885	0.025787	-0.17532	0.003357	0.11047	-0.005798	0.009003	0.003662	0.039063	-0.25299	-0.012817	0.016327	0.002136	0.12054	0.85358	0.005798	0.036469	0.040131	-0.57053	-0.10056	-0.007782	-0.040283	-0.24735	-0.008545	-0.073547	0.3006	-0.003815	-0.014038
41.634	0.019684	0.24185	-0.34821	0.016174	0.001678	0.040588	-0.18204	0.002441	0.10544	-0.042114	0.017395	-0.003052	0.021362	-0.20218	0.009308	0.019684	-0.009155	0.16296	0.090485	0.052185	0.014038	-0.020905	-0.62958	-0.066223	0.074615	0.007782	-0.088654	0.005035	0.038452	0.4277	-0.004883	-0.01236
41.635	0.017395	0.22614	-0.21439	0.009308	0.01236	0.033569	-0.16266	0.009308	0.10544	-0.057678	0.027313	-0.010529	-0.03006	-0.1297	0.018158	0.007172	0.012665	0.059357	0.052948	-0.037079	-0.016937	-0.008392	-0.54123	-0.064545	0.054016	0.023499	-0.081482	0.013123	0.06958	0.80856	-0.001221	-0.00946
41.636	0.010986	0.17487	0.058289	-0.011292	0.023804	0.028534	-0.14252	0.009003	0.094757	-0.052032	0.02243	-0.002136	-0.031586	-0.054321	0.038452	0.013885	0.030365	0.029297	0.34241	-0.12085	-0.002289	0.025787	-0.24155	-0.049896	0.029449	0.004883	-0.2092	0.005341	0.010071	0.65628	-0.000153	-0.003967
41.637	0.011292	0.19089	0.093384	0.011292	0.009308	0.047913	-0.14618	0.011292	0.088654	-0.058746	0.029144	-0.004425	-0.002289	-0.002747	0.029602	0.014343	0.04364	-0.058899	0.98602	-0.072327	-0.028839	0.052032	-0.088043	-0.048981	0.049744	-0.02655	0.004272	-0.000305	-0.068054	0.88577	-0.002289	-0.013275
41.638	0.003967	0.14923	0.12604	0.002289	0.013275	0.090179	-0.15823	0.009308	0.075073	-0.067444	0.018616	-0.004425	0.072632	0.018768	-0.023956	0.032349	0.036926	-0.23224	1.0234	0.023346	0.034943	0.09613	-0.089111	-0.040741	0.053558	-0.01709	0.21896	-0.005951	-0.16068	0.5542	-0.007477	-0.010223
41.639	-0.000763	0.11978	0.15442	0.003204	-0.003052	0.11719	-0.14175	0.008087	0.076904	-0.06134	0.012665	0.002136	0.036926	-0.00824	0.009003	0.025787	0.039825	-0.22812	1.1191	0.075378	0.052948	0.18875	-0.01358	-0.068512	0.005951	0.02243	0.54855	-0.00351	-0.17075	0.14725	-0.00351	-0.013428
41.64	-0.002899	0.13077	0.1329	0.00412	-0.029907	0.11047	-0.16525	0.011444	0.062714	-0.03891	0.013428	-0.009766	0.015259	-0.010834	0.005646	0.009308	0.025635	-0.21027	0.85449	0.08606	0.043182	0.13794	0.13428	-0.097656	-0.050354	0.006409	0.89615	-0.009003	-0.1709	-0.063629	-0.002136	-0.017548
41.641	0.000916	0.11581	0.11826	0.002747	-0.062866	0.083008	-0.16312	0.005646	0.064545	-0.053101	-0.006409	-0.013123	0.026703	-0.041046	-0.015869	0.033875	-0.0354	-0.26276	0.12802	0.031128	-0.01709	0.10864	0.013885	-0.059509	-0.047302	-0.019531	0.51743	-0.010223	-0.16266	-0.053406	-0.004425	-0.012512
41.642	-0.007935	0.13062	0.032806	0.005341	-0.054474	0.013123	-0.16129	0.006714	0.062408	-0.061188	-0.004425	-0.011902	0.022278	-0.11444	-0.008087	0.03067	-0.041199	-0.26718	-0.078583	0.035858	-0.159	-0.04364	-0.27298	0.04364	0.005646	0.001526	-0.64667	-0.001831	0.17487	-0.2298	-0.009766	-0.011139
41.643	-0.008698	0.15457	-0.15366	0.011902	-0.044708	-0.011139	-0.15488	0.005341	0.050812	-0.061188	0.025787	-0.007019	0.023956	-0.16281	0.015106	0.043945	-0.023956	-0.27954	-0.25696	0.037384	-0.1207	-0.22766	-0.53894	0.06897	0.14648	-0.007477	-0.71991	-0.00946	0.036621	-0.3952	-0.004425	-0.00885
41.644	-0.003052	0.18188	-0.17456	0.010681	-0.028839	-0.016022	-0.1265	0.013123	0.057373	-0.05722	0.068665	-0.004425	0.003662	-0.15793	0.024109	0.031586	-0.001373	-0.31418	-0.30243	0.063934	-0.16434	-0.15289	-0.39444	0.012207	0.23529	-0.009918	0.39841	-0.001678	-0.14587	-0.34576	0	-0.006409
41.645	0.003967	0.21729	-0.07309	0.015869	0.008545	-0.032654	-0.16068	0.009308	0.050201	-0.05188	0.04364	-0.008698	0.015717	-0.1741	0.009766	0.045776	0.010986	-0.21255	-0.1207	0.061188	-0.22446	-0.29098	-0.1506	-0.025635	0.1471	0.000458	0.33539	0.004883	-0.011902	-0.33432	-0.003662	-0.011292
41.646	0.011444	0.19424	0.00885	-0.000458	0.11231	-0.04837	-0.16571	0.011139	0.052795	-0.053406	-0.028534	-0.009613	0.026245	-0.13519	-0.01709	0.027924	0.00946	-0.22537	-0.11765	0.023956	-0.10605	-0.22492	-0.041656	0.000763	0.098572	-0.005493	0.82016	-0.010986	-0.23086	-0.24704	-0.003357	-0.007172
41.647	0.026703	0.17563	0.001068	0.007629	0.10056	-0.036621	-0.18036	0.006256	0.051727	-0.054474	0.008698	-0.010529	0.001984	-0.094147	-0.009308	0.024719	0	-0.17899	-0.10498	0.036926	0.38925	-0.037994	-0.084076	0.10407	0.067596	0.000458	0.30182	-0.013428	-0.24628	-0.32394	-0.002747	-0.007477
41.648	0.023499	0.13962	-0.004425	0.018463	0.016785	-0.048523	-0.18707	0.007172	0.032959	-0.039368	0.025482	-0.007782	0.001373	-0.090637	-0.01358	0.030365	0.000305	-0.084381	-0.2829	0.001373	0.22964	0.31158	-0.020905	0.01358	0.028839	0.010681	-0.89523	-0.016022	0.046234	-0.42679	-0.005188	0.000305
41.649	0.013275	0.12604	0.058136	0.005035	-0.002747	-0.017548	-0.18402	0.016632	0.038147	-0.021515	0.01709	-0.011444	0.024261	-0.0914	-0.023041	0.030518	-0.024109	-0.1059	-0.49362	0.023651	0.05722	0.35584	-0.091858	0.044403	0.009766	0.015564	-0.88287	-0.018005	0.33447	-0.50262	-0.008545	-0.003815
41.65	-0.007782	0.13001	0.033875	-0.001984	-0.037842	-0.006714	-0.19089	0.016632	0.042419	-0.035858	0.010529	-0.010223	0.037689	-0.13123	-0.019379	0.027771	-0.028687	-0.093689	-0.60577	0.021515	0.015411	0.30685	0.012054	0.046844	0.053711	0.025787	-0.27863	-0.011749	0.46341	-0.43716	-0.004425	-0.000916
41.651	-0.004883	0.13855	-0.067139	0.008087	-0.035553	0.01236	-0.18143	0.010223	0.03006	-0.024719	-0.019989	-0.010681	-0.007324	-0.13718	-0.011444	0.021057	-0.000916	-0.1384	-0.52902	-0.006866	0.006866	0.43564	-0.043488	0.16525	0.055237	0.025635	0.002747	0.019073	0.14374	-0.36591	-0.004578	0.002747
41.652	0.007477	0.12787	-0.096893	0.011292	0.049591	-0.024567	-0.16769	0.015106	0.027771	-0.037384	-0.021515	-0.007477	-0.020599	-0.16357	0.001526	0.014954	0.001373	-0.032043	0.15045	-0.050964	0.013733	0.33173	-0.088654	-0.091858	0.016479	0.005493	-0.5191	0.029449	-0.015411	-0.24872	-0.001831	-0.002289
41.653	0.030212	0.12589	-0.015564	0.011444	0.12024	-0.076752	-0.18555	0.014801	0.036621	-0.038147	0.00946	-0.011902	-0.00885	-0.13763	0.011902	0.013428	0.004272	-0.056915	0.24246	-0.064545	0.005951	0.22003	-0.076447	-0.26688	-0.016174	-0.002136	-0.15243	-0.01709	-0.07843	-0.026398	-0.003815	-0.015106
41.654	0.003662	0.10757	0.10834	0.005798	0.082245	-0.094757	-0.19821	0.009308	0.027618	-0.036774	-0.002747	-0.008087	0.005646	-0.15961	0.020294	0.019989	0.010986	-0.11154	0.29159	-0.048981	-0.012665	0.15121	-0.25314	-0.36102	-0.20615	-0.011444	-0.15198	-0.025024	-0.001068	0.12909	-0.00473	-0.023651
41.655	0.083313	0.099792	0.028839	-0.003204	0.032349	-0.041504	-0.18997	0.01297	0.027618	-0.030365	0.002747	-0.016937	0.005341	-0.16357	0.013275	0.040588	0.005493	-0.080719	0.025177	-0.001678	-0.026245	0.12192	-0.31952	-0.28793	-0.23193	-0.014954	0.33905	-0.015411	0.003662	0.2803	-0.006256	-0.022125
41.656	0.00824	0.12009	0.032501	-0.005798	0.056915	-0.01709	-0.19653	0.009918	0.023193	-0.026093	0.012054	-0.010071	-0.029907	-0.19318	0.003052	0.058441	0.004578	-0.057068	0.18341	-0.00885	-0.052032	0.11032	-0.60471	-0.29343	0.02533	-0.019226	1.0239	-0.009155	-0.016022	0.24948	0	-0.015106
41.657	0.032654	0.095825	0.066681	-0.007019	0.036469	-0.006409	-0.19028	0.010529	0.017548	-0.053253	0.022888	-0.001221	-0.073242	-0.18478	-0.001373	-0.1532	0.013885	-0.041351	0.014496	0.032501	-0.009766	0.08316	-0.32471	-0.33676	0.25269	-0.015106	0.45364	-0.004578	0.098267	0.078888	-0.004272	-0.017242
41.658	0.012207	0.095978	-0.007172	0.027313	0.001831	0.007782	-0.19012	0.012207	0.017853	-0.047455	0.011139	-0.011902	-0.011444	-0.10849	0.008087	-0.041656	0.011902	-0.090485	0.033722	0.040131	0.094147	0.08728	0.003052	0.088654	0.1738	-0.009766	0.063171	-0.003204	0.096741	-0.046082	-0.002136	-0.011139
41.659	0.010986	0.049896	0.011597	0.015564	-0.006561	0.07309	-0.17777	0.016785	0.021973	-0.080261	0.008698	-0.009308	0.009918	-0.1294	0.032349	0.13855	0.042877	-0.06012	0.54886	0.009766	0.057526	0.089264	0.15549	0.22339	0.093994	0.001068	-1.1423	0.001068	0.16968	-0.050201	-0.000305	-0.013428
41.66	0.00351	-0.01236	-0.067749	0.006714	-0.007019	0.084534	-0.17349	0.006561	0.00946	-0.05127	0	-0.007477	-0.008545	-0.090942	0.037384	0.065918	0.045471	-0.053406	0.70999	0.014191	-0.032501	0.089569	0.11627	0.10346	0.11871	-0.013733	-1.1359	-0.011139	-0.010223	-0.13412	-0.007629	-0.011444
41.661	0.00412	0.010223	0.002136	0.002289	-0.005798	0.024567	-0.18356	0.009918	-0.00061	-0.036011	0.004883	-0.014191	0.009155	-0.08606	0.014801	0.014191	0.023346	-0.022278	0.56702	-0.040283	-0.18448	0.096741	-0.099182	-0.074768	0.13199	-0.019379	0.097504	-0.009766	-0.081635	-0.35904	-0.004578	-0.018921
41.662	0.002594	-0.078888	-0.040894	-0.005341	0.026245	-0.000916	-0.18768	0.009003	-0.006409	-0.042267	0.000763	-0.010376	0.002289	-0.050354	0.010223	-0.003204	0.005341	-0.11002	-0.30304	-0.079651	-0.16754	0.11765	-0.25528	-0.14694	0.13397	-0.007019	0.42252	-0.007172	0.044861	-0.41138	-0.004578	-0.009003
